<?xml version="1.0" encoding="UTF-8" standalone="no"?>
<!DOCTYPE svg PUBLIC "-//W3C//DTD SVG 1.1//EN" "http://www.w3.org/Graphics/SVG/1.1/DTD/svg11.dtd">
<svg width="100%" height="100%" viewBox="0 0 65 54" version="1.1" xmlns="http://www.w3.org/2000/svg" xmlns:xlink="http://www.w3.org/1999/xlink" xml:space="preserve" xmlns:serif="http://www.serif.com/" style="fill-rule:evenodd;clip-rule:evenodd;stroke-linecap:round;stroke-linejoin:round;">
    <g transform="matrix(1,0,0,1,-3.95527,-9.28674)">
        <g id="skin-a">
            <path d="M62.622,40.338C63.582,43.588 61.513,46.321 58.187,45.73C58.63,48.979 55.452,51.86 51.608,50.013C53.086,53.779 49.611,55.921 46.877,54.296C48.28,55.995 46.064,61.756 37.49,56.29L35.847,55.387L16.509,44.752L15.05,43.95C15.05,43.95 7.917,38.128 6.513,35.691C2.121,28.096 7.462,15.901 16.953,13.871L24.896,12.447L30.135,20.394L43.209,26.398L56,33.58L59.685,37.347L62.622,40.338Z" style="fill:rgb(250,220,188);fill-rule:nonzero;"/>
        </g>
        <g id="skin-b">
            <path d="M62.622,40.338C69.343,35.753 67.663,21.308 62.523,14.978C53.236,13.519 51.523,12.616 41.543,11.035L28.013,10.417C26.015,9.892 23.922,11.001 23.234,12.95C22.43,15.896 21.218,18.716 19.635,21.328C18.91,23.1 19.749,25.156 21.507,25.916C23.415,26.392 24.287,25.53 25.967,24.23C27.407,22.855 28.683,21.32 29.772,19.655L43.412,25.859L56.132,33.023C58.646,34.721 61.144,38.867 62.642,40.344" style="fill:rgb(106,70,47);fill-rule:nonzero;"/>
            <path d="M31.51,54.15C32.408,52.777 34.268,52.373 35.654,53.25C37.059,54.063 38.093,55.612 37.132,57.313L35.358,60.414C34.742,61.243 33.767,61.733 32.733,61.733C30.94,61.733 29.463,60.257 29.463,58.463C29.463,58.045 29.544,57.631 29.7,57.242L31.51,54.148L31.51,54.15Z" style="fill:rgb(106,70,47);fill-rule:nonzero;"/>
            <path d="M25.84,50.98C26.738,49.607 28.598,49.203 29.984,50.08C31.389,50.893 32.423,52.442 31.462,54.143L29.688,57.244C29.072,58.073 28.097,58.563 27.064,58.563C25.27,58.563 23.794,57.087 23.794,55.293C23.794,54.875 23.874,54.461 24.03,54.073L25.84,50.979L25.84,50.98Z" style="fill:rgb(106,70,47);fill-rule:nonzero;"/>
            <path d="M20.18,47.82C21.078,46.447 22.938,46.043 24.324,46.92C25.729,47.733 26.763,49.282 25.802,50.983L24.028,54.084C23.412,54.913 22.437,55.403 21.404,55.403C19.61,55.403 18.134,53.927 18.134,52.133C18.134,51.715 18.214,51.301 18.37,50.913L20.18,47.819L20.18,47.82Z" style="fill:rgb(106,70,47);fill-rule:nonzero;"/>
            <path d="M14.53,44.65C15.428,43.277 17.288,42.873 18.674,43.75C20.079,44.563 21.113,46.112 20.152,47.813L18.378,50.914C17.762,51.743 16.787,52.233 15.754,52.233C13.96,52.233 12.484,50.757 12.484,48.963C12.484,48.545 12.564,48.131 12.72,47.743L14.53,44.649L14.53,44.65Z" style="fill:rgb(106,70,47);fill-rule:nonzero;"/>
        </g>
        <path d="M15.05,43.95C15.05,43.95 7.917,38.128 6.513,35.691C2.121,28.096 7.462,15.901 16.953,13.871" style="fill:none;fill-rule:nonzero;stroke:black;stroke-width:2px;"/>
        <path d="M38.71,42.99L51.6,50.011" style="fill:none;fill-rule:nonzero;stroke:black;stroke-width:2px;"/>
        <path d="M33.87,47.79L46.87,54.288" style="fill:none;fill-rule:nonzero;stroke:black;stroke-width:2px;"/>
        <path d="M58.18,45.72L53.08,41.362L44.801,37.027" style="fill:none;fill-rule:nonzero;stroke:black;stroke-width:2px;"/>
        <path d="M37.49,56.29C46.064,61.756 48.28,55.995 46.877,54.296C49.611,55.921 53.086,53.779 51.608,50.013C55.452,51.86 58.63,48.979 58.187,45.73C61.513,46.321 63.582,43.588 62.622,40.338C69.343,35.753 67.663,21.308 62.523,14.978C53.236,13.519 51.523,12.616 41.543,11.035L28.013,10.416C26.015,9.892 23.922,11.001 23.234,12.949C22.43,15.896 21.218,18.716 19.635,21.327C18.91,23.1 19.749,25.156 21.507,25.915C23.415,26.392 24.287,25.529 25.967,24.229C27.407,22.855 28.683,21.32 29.772,19.654L43.412,25.858L56.132,33.022C58.646,34.72 61.144,38.866 62.642,40.343" style="fill:none;fill-rule:nonzero;stroke:black;stroke-width:2px;"/>
        <path d="M31.51,54.15C32.408,52.777 34.268,52.373 35.654,53.25C37.059,54.063 38.093,55.612 37.132,57.313L35.358,60.414C34.742,61.243 33.767,61.733 32.733,61.733C30.94,61.733 29.463,60.257 29.463,58.463C29.463,58.045 29.544,57.631 29.7,57.242L31.51,54.148L31.51,54.15Z" style="fill:none;fill-rule:nonzero;stroke:black;stroke-width:2px;"/>
        <path d="M25.84,50.98C26.738,49.607 28.598,49.203 29.984,50.08C31.389,50.893 32.423,52.442 31.462,54.143L29.688,57.244C29.072,58.073 28.097,58.563 27.064,58.563C25.27,58.563 23.794,57.087 23.794,55.293C23.794,54.875 23.874,54.461 24.03,54.073L25.84,50.979L25.84,50.98Z" style="fill:none;fill-rule:nonzero;stroke:black;stroke-width:2px;"/>
        <path d="M20.18,47.82C21.078,46.447 22.938,46.043 24.324,46.92C25.729,47.733 26.763,49.282 25.802,50.983L24.028,54.084C23.412,54.913 22.437,55.403 21.404,55.403C19.61,55.403 18.134,53.927 18.134,52.133C18.134,51.715 18.214,51.301 18.37,50.913L20.18,47.819L20.18,47.82Z" style="fill:none;fill-rule:nonzero;stroke:black;stroke-width:2px;"/>
        <path d="M14.53,44.65C15.428,43.277 17.288,42.873 18.674,43.75C20.079,44.563 21.113,46.112 20.152,47.813L18.378,50.914C17.762,51.743 16.787,52.233 15.754,52.233C13.96,52.233 12.484,50.757 12.484,48.963C12.484,48.545 12.564,48.131 12.72,47.743L14.53,44.649L14.53,44.65Z" style="fill:none;fill-rule:nonzero;stroke:black;stroke-width:2px;"/>
    </g>
</svg>
