<?xml version="1.0" encoding="UTF-8" standalone="no"?>
<!DOCTYPE svg PUBLIC "-//W3C//DTD SVG 1.1//EN" "http://www.w3.org/Graphics/SVG/1.1/DTD/svg11.dtd">
<svg width="100%" height="100%" viewBox="0 0 1237 787" version="1.1" xmlns="http://www.w3.org/2000/svg" xmlns:xlink="http://www.w3.org/1999/xlink" xml:space="preserve" xmlns:serif="http://www.serif.com/" style="fill-rule:evenodd;clip-rule:evenodd;stroke-linecap:round;stroke-linejoin:round;stroke-miterlimit:1.5;">
    <g transform="matrix(1,0,0,1,-38.32,-214.138)">
        <g transform="matrix(1,0,0,1,0,-3577.11)">
            <g transform="matrix(0.541861,0,0,0.313568,0,3577.11)">
                <g id="mapping_C">
                    <g transform="matrix(1.84549,0,0,3.1891,-418.924,-177.403)">
                        <path d="M781.883,486.27L679.024,486.27L694.281,500.455L714.25,500.455C714.25,500.455 718.282,500.791 718.282,505.469C718.282,511.178 714.25,511.059 714.25,511.059L699.628,511.059C699.628,511.059 694.281,510.38 694.281,515.71C694.281,521.039 699.628,520.347 699.628,520.347L761.279,520.347C761.279,520.347 766.626,521.039 766.626,515.71C766.626,510.38 761.279,511.059 761.279,511.059L746.657,511.059C746.657,511.059 742.625,511.178 742.625,505.469C742.625,500.791 746.657,500.455 746.657,500.455L766.626,500.455L781.883,486.27Z" style="fill:rgb(230,230,230);stroke:black;stroke-width:1.87px;"/>
                        <g transform="matrix(1,0,0,1,232.744,0)">
                            <path d="M781.883,486.27L679.024,486.27L694.281,500.455L714.25,500.455C714.25,500.455 718.282,500.791 718.282,505.469C718.282,511.178 714.25,511.059 714.25,511.059L699.628,511.059C699.628,511.059 694.281,510.38 694.281,515.71C694.281,521.039 699.628,520.347 699.628,520.347L761.279,520.347C761.279,520.347 766.626,521.039 766.626,515.71C766.626,510.38 761.279,511.059 761.279,511.059L746.657,511.059C746.657,511.059 742.625,511.178 742.625,505.469C742.625,500.791 746.657,500.455 746.657,500.455L766.626,500.455L781.883,486.27Z" style="fill:rgb(230,230,230);stroke:black;stroke-width:1.87px;"/>
                        </g>
                        <g transform="matrix(1,0,0,1,-9.97856,0)">
                            <path d="M1000.93,486.27L961.244,486.27L961.244,490.806C973.852,495.695 987.075,495.733 1000.93,490.806L1000.93,486.27Z" style="fill:rgb(230,230,230);stroke:black;stroke-width:1.87px;"/>
                        </g>
                        <g transform="matrix(1.26619,0,0,1.04668,-372.198,-22.698)">
                            <path d="M1000.93,486.27L961.244,486.27L961.244,490.806C973.852,495.695 987.075,495.733 1000.93,490.806L1000.93,486.27Z" style="fill:white;stroke:black;stroke-width:1.61px;"/>
                        </g>
                        <g transform="matrix(0.509953,0,0,0.71362,320.886,139.258)">
                            <path d="M1000.93,486.27L961.244,486.27L961.244,490.806C973.852,495.695 987.075,495.733 1000.93,490.806L1000.93,486.27Z" style="fill:rgb(230,230,230);stroke:black;stroke-width:3.02px;"/>
                        </g>
                        <g transform="matrix(0.509953,0,0,0.71362,423.018,139.258)">
                            <path d="M1000.93,486.27L961.244,486.27L961.244,490.806C973.852,495.695 987.075,495.733 1000.93,490.806L1000.93,486.27Z" style="fill:rgb(230,230,230);stroke:black;stroke-width:3.02px;"/>
                        </g>
                        <g transform="matrix(1,0,0,1,30.3589,0)">
                            <path d="M1000.93,486.27L961.244,486.27L961.244,490.806C973.852,495.695 987.075,495.733 1000.93,490.806L1000.93,486.27Z" style="fill:rgb(230,230,230);stroke:black;stroke-width:1.87px;"/>
                        </g>
                        <g transform="matrix(1,0,0,1,70.6964,0)">
                            <path d="M1000.93,486.27L961.244,486.27L961.244,490.806C973.852,495.695 987.075,495.733 1000.93,490.806L1000.93,486.27Z" style="fill:rgb(230,230,230);stroke:black;stroke-width:1.87px;"/>
                        </g>
                        <path d="M679.581,343.79C679.581,343.79 653.691,318.641 635.291,318.329C616.891,318.017 592.769,326.752 590.208,343.79C583.218,390.292 651.513,468.153 657.758,474.703" style="fill:white;stroke:black;stroke-width:3.13px;"/>
                        <g transform="matrix(-1,0,0,1,1746.95,0)">
                            <path d="M679.581,343.79C679.581,343.79 653.691,318.641 635.291,318.329C616.891,318.017 592.769,326.752 590.208,343.79C583.218,390.292 651.513,468.153 657.758,474.703" style="fill:white;stroke:black;stroke-width:3.13px;"/>
                        </g>
                        <path d="M679.98,486.27L1066.97,486.27C1086.85,486.27 1092.72,469.403 1095.59,460.769C1098.46,452.135 1094.48,436.927 1086.55,393.576C1078.62,350.225 1052.81,318.329 1035.9,318.329C1015.62,318.329 1005.78,350.762 1004.16,357.19C1002.92,362.139 1003.25,376.983 999.617,386.429C995.985,395.875 979.039,406.591 973.191,406.624C967.342,406.656 964.272,404.48 962.663,397.508C961.053,390.536 963.379,349.04 962.663,339.113C961.946,329.186 958.048,326.132 949.907,322.716C941.766,319.299 873.35,318.329 873.35,318.329C873.35,318.329 805.186,319.299 797.045,322.716C788.904,326.132 785.006,329.186 784.289,339.113C783.572,349.04 785.898,390.536 784.289,397.508C782.68,404.48 779.61,406.656 773.761,406.624C767.913,406.591 750.967,395.875 747.335,386.429C743.704,376.983 744.031,362.139 742.787,357.19C741.172,350.762 731.332,318.329 711.051,318.329C694.142,318.329 668.327,350.225 660.401,393.576C652.475,436.927 648.496,452.135 651.363,460.769C654.231,469.403 660.104,486.27 679.98,486.27Z" style="fill:white;stroke:black;stroke-width:3.13px;"/>
                        <path d="M784.207,351.059L962.751,351.059" style="fill:none;stroke:black;stroke-width:3.33px;"/>
                        <path d="M724.449,345.064C724.449,340.014 720.349,335.914 715.299,335.914L696.999,335.914C691.949,335.914 687.849,340.014 687.849,345.064L687.849,406.424C687.849,411.474 691.949,415.574 696.999,415.574L715.299,415.574C720.349,415.574 724.449,411.474 724.449,406.424L724.449,345.064Z" style="fill:rgb(236,102,12);stroke:black;stroke-width:1.67px;"/>
                        <g transform="matrix(-1,0,0,1,1746.95,0)">
                            <path d="M724.449,345.064C724.449,340.014 720.349,335.914 715.299,335.914L696.999,335.914C691.949,335.914 687.849,340.014 687.849,345.064L687.849,406.424C687.849,411.474 691.949,415.574 696.999,415.574L715.299,415.574C720.349,415.574 724.449,411.474 724.449,406.424L724.449,345.064Z" style="fill:rgb(236,102,12);stroke:black;stroke-width:1.67px;"/>
                        </g>
                        <path d="M777.386,453.367C777.386,445.205 770.76,438.58 762.599,438.58L686.274,438.58C678.113,438.58 671.487,445.205 671.487,453.367C671.487,461.528 678.113,468.153 686.274,468.153L762.599,468.153C770.76,468.153 777.386,461.528 777.386,453.367Z" style="fill:rgb(236,102,12);stroke:black;stroke-width:1.67px;"/>
                        <g transform="matrix(-1,0,0,1,1746.95,0)">
                            <path d="M777.386,453.367C777.386,445.205 770.76,438.58 762.599,438.58L686.274,438.58C678.113,438.58 671.487,445.205 671.487,453.367C671.487,461.528 678.113,468.153 686.274,468.153L762.599,468.153C770.76,468.153 777.386,461.528 777.386,453.367Z" style="fill:rgb(236,102,12);stroke:black;stroke-width:1.67px;"/>
                        </g>
                        <g transform="matrix(0.338096,0,0,0.675864,628.672,77.1682)">
                            <path d="M777.386,453.367C777.386,445.205 764.14,438.58 747.826,438.58L701.047,438.58C684.732,438.58 671.487,445.205 671.487,453.367C671.487,461.528 684.732,468.153 701.047,468.153L747.826,468.153C764.14,468.153 777.386,461.528 777.386,453.367Z" style="fill:white;stroke:black;stroke-width:3.12px;"/>
                        </g>
                        <g transform="matrix(0.578273,0,0,0.878731,454.68,-46.2807)">
                            <path d="M777.386,453.367C777.386,445.205 767.317,438.58 754.916,438.58L693.957,438.58C681.556,438.58 671.487,445.205 671.487,453.367C671.487,461.528 681.556,468.153 693.957,468.153L754.916,468.153C767.317,468.153 777.386,461.528 777.386,453.367Z" style="fill:white;stroke:black;stroke-width:2.24px;"/>
                        </g>
                    </g>
                    <g>
                        <g transform="matrix(1.84549,0,0,3.1891,-418.924,-177.403)">
                            <path d="M1051.61,332.555L1095.97,288.198L1236.1,288.198" style="fill:none;stroke:black;stroke-width:0.63px;"/>
                        </g>
                        <g transform="matrix(-1.84549,0,0,3.1891,2805.13,-177.403)">
                            <path d="M1051.61,332.555L1095.97,288.198L1236.1,288.198" style="fill:none;stroke:black;stroke-width:0.63px;"/>
                        </g>
                        <g transform="matrix(1.84549,0,0,3.1891,-418.924,-177.403)">
                            <path d="M1078.9,453.367L1236.1,453.367" style="fill:none;stroke:black;stroke-width:0.63px;"/>
                        </g>
                        <g transform="matrix(-1.71772,0,0,3.1891,2647.2,-177.403)">
                            <path d="M1067.37,453.367L1236.1,453.367" style="fill:none;stroke:black;stroke-width:0.65px;"/>
                        </g>
                        <g transform="matrix(1.84549,0,0,3.1891,-440.343,-144.334)">
                            <g>
                                <g transform="matrix(1,0,0,1,1257.28,287.522)">
                                    <text x="0px" y="0px" style="font-family:'Roboto-Light', 'Roboto';font-weight:300;font-size:37.5px;">actuat</text>
                                </g>
                                <g transform="matrix(1,0,0,1,1361.1,287.522)">
                                    <text x="0px" y="0px" style="font-family:'Roboto-Light', 'Roboto';font-weight:300;font-size:37.5px;">or 1-5</text>
                                </g>
                            </g>
                        </g>
                        <g transform="matrix(1.84549,0,0,3.1891,205.619,772.602)">
                            <text x="0px" y="0px" style="font-family:'Roboto-Light', 'Roboto';font-weight:300;font-size:37.5px;">amplitude</text>
                        </g>
                        <g transform="matrix(1.84549,0,0,3.1891,64.9745,1301.92)">
                            <text x="0px" y="0px" style="font-family:'Roboto-Light', 'Roboto';font-weight:300;font-size:37.5px;">lock amplitude</text>
                        </g>
                        <g transform="matrix(1.84549,0,0,3.1891,-440.343,383.754)">
                            <g>
                                <g transform="matrix(1,0,0,1,1257.28,287.522)">
                                    <text x="0px" y="0px" style="font-family:'Roboto-Light', 'Roboto';font-weight:300;font-size:37.5px;">all actuat</text>
                                </g>
                                <g transform="matrix(1,0,0,1,1407.12,287.522)">
                                    <text x="0px" y="0px" style="font-family:'Roboto-Light', 'Roboto';font-weight:300;font-size:37.5px;">ors</text>
                                </g>
                            </g>
                        </g>
                    </g>
                    <g transform="matrix(1.84549,0,0,3.1891,-418.924,-5.57261)">
                        <path d="M873.602,888.886C873.602,888.886 952.57,888.475 972.676,888.886C992.783,889.297 1087.76,995.049 1103.36,999.557C1124.79,1005.75 1139.73,992.199 1149.43,975.568C1159.13,958.938 1155.29,902.953 1155.36,885.879C1155.42,868.805 1091.34,620.116 1065.41,599.388C1045.42,583.41 994.815,570.99 976.757,578.731C963.142,584.567 940.192,619.037 915.32,619.037L831.883,619.037C807.011,619.037 784.061,584.567 770.446,578.731C752.388,570.99 701.78,583.41 681.793,599.388C655.865,620.116 591.782,868.805 591.846,885.879C591.91,902.953 588.069,958.938 597.771,975.568C607.474,992.199 622.416,1005.75 643.846,999.557C659.44,995.049 754.42,889.297 774.527,888.886C794.633,888.475 873.602,888.886 873.602,888.886Z" style="fill:white;stroke:black;stroke-width:3.13px;"/>
                        <ellipse cx="964.329" cy="808.371" rx="51.131" ry="60.404" style="fill:none;stroke:black;stroke-width:1.87px;"/>
                        <circle cx="1025.53" cy="653.489" r="21.669" style="fill:rgb(236,102,12);stroke:black;stroke-width:1.87px;"/>
                        <g>
                            <circle cx="732.014" cy="668.303" r="34.07" style="fill:rgb(236,102,12);stroke:black;stroke-width:1.87px;"/>
                            <g transform="matrix(1,0,0,1,-0.959505,0.597727)">
                                <g transform="matrix(0.116387,0,0,0.116387,613.615,570.506)">
                                    <circle cx="1025.53" cy="653.489" r="21.669" style="fill:rgb(236,102,12);stroke:black;stroke-width:16.11px;"/>
                                </g>
                                <g transform="matrix(0.116387,0,0,0.116387,613.615,612.789)">
                                    <circle cx="1025.53" cy="653.489" r="21.669" style="fill:rgb(236,102,12);stroke:black;stroke-width:16.11px;"/>
                                </g>
                            </g>
                            <g transform="matrix(6.12323e-17,1,-1,6.12323e-17,1399.72,-64.6706)">
                                <g transform="matrix(0.116387,0,0,0.116387,613.615,570.506)">
                                    <circle cx="1025.53" cy="653.489" r="21.669" style="fill:rgb(236,102,12);stroke:black;stroke-width:16.11px;"/>
                                </g>
                                <g transform="matrix(0.116387,0,0,0.116387,613.615,612.789)">
                                    <circle cx="1025.53" cy="653.489" r="21.669" style="fill:rgb(236,102,12);stroke:black;stroke-width:16.11px;"/>
                                </g>
                            </g>
                        </g>
                        <g transform="matrix(1,0,0,1,232.315,140.068)">
                            <circle cx="732.014" cy="668.303" r="34.07" style="fill:rgb(236,102,12);stroke:black;stroke-width:1.87px;"/>
                            <g transform="matrix(1,0,0,1,-0.959505,0.597727)">
                                <g transform="matrix(0.116387,0,0,0.116387,613.615,570.506)">
                                    <circle cx="1025.53" cy="653.489" r="21.669" style="fill:rgb(236,102,12);stroke:black;stroke-width:16.11px;"/>
                                </g>
                                <g transform="matrix(0.116387,0,0,0.116387,613.615,612.789)">
                                    <circle cx="1025.53" cy="653.489" r="21.669" style="fill:rgb(236,102,12);stroke:black;stroke-width:16.11px;"/>
                                </g>
                            </g>
                            <g transform="matrix(6.12323e-17,1,-1,6.12323e-17,1399.72,-64.6706)">
                                <g transform="matrix(0.116387,0,0,0.116387,613.615,570.506)">
                                    <circle cx="1025.53" cy="653.489" r="21.669" style="fill:rgb(236,102,12);stroke:black;stroke-width:16.11px;"/>
                                </g>
                                <g transform="matrix(0.116387,0,0,0.116387,613.615,612.789)">
                                    <circle cx="1025.53" cy="653.489" r="21.669" style="fill:rgb(236,102,12);stroke:black;stroke-width:16.11px;"/>
                                </g>
                            </g>
                        </g>
                        <g transform="matrix(6.12323e-17,1,-1,6.12323e-17,1718.16,-332.911)">
                            <circle cx="1025.53" cy="653.489" r="21.669" style="fill:rgb(236,102,12);stroke:black;stroke-width:1.87px;"/>
                        </g>
                        <g transform="matrix(1,0,0,1,0,78.2649)">
                            <circle cx="1025.53" cy="653.489" r="21.669" style="fill:rgb(236,102,12);stroke:black;stroke-width:1.87px;"/>
                        </g>
                        <g transform="matrix(6.12323e-17,1,-1,6.12323e-17,1639.89,-332.911)">
                            <circle cx="1025.53" cy="653.489" r="21.669" style="fill:rgb(236,102,12);stroke:black;stroke-width:1.87px;"/>
                        </g>
                        <circle cx="873.602" cy="677.849" r="24.36" style="fill:white;stroke:black;stroke-width:1.87px;"/>
                        <circle cx="873.602" cy="677.849" r="28.684" style="fill:none;stroke:black;stroke-width:1.87px;"/>
                        <g transform="matrix(1.56142,0,0,1.56142,-410.969,-375.2)">
                            <circle cx="732.014" cy="668.303" r="34.07" style="fill:none;stroke:black;stroke-width:1.2px;"/>
                        </g>
                        <g transform="matrix(1.71914,0,0,1.71914,-467.162,-354.58)">
                            <circle cx="732.014" cy="668.303" r="34.07" style="fill:none;stroke:black;stroke-width:1.09px;"/>
                        </g>
                        <g transform="matrix(1.41721,0,0,1.41721,-246.141,-152.795)">
                            <circle cx="732.014" cy="668.303" r="34.07" style="fill:none;stroke:black;stroke-width:1.32px;"/>
                        </g>
                        <path d="M835.068,675.841C835.068,670.846 831.013,666.791 826.018,666.791L819.501,666.791C814.506,666.791 810.451,670.846 810.451,675.841C810.451,680.837 814.506,684.892 819.501,684.892L826.018,684.892C831.013,684.892 835.068,680.837 835.068,675.841Z" style="fill:rgb(236,102,12);stroke:black;stroke-width:1.87px;"/>
                        <g transform="matrix(1,0,0,1,102.748,0)">
                            <path d="M835.068,675.841C835.068,670.846 831.013,666.791 826.018,666.791L819.501,666.791C814.506,666.791 810.451,670.846 810.451,675.841C810.451,680.837 814.506,684.892 819.501,684.892L826.018,684.892C831.013,684.892 835.068,680.837 835.068,675.841Z" style="fill:rgb(236,102,12);stroke:black;stroke-width:1.87px;"/>
                        </g>
                        <path d="M748.637,780.556C756.357,780.556 763.762,777.489 769.221,772.03C774.68,766.571 777.747,759.167 777.747,751.447L777.747,747.967C786.765,745.408 795.783,745.398 804.801,747.967L804.801,751.447C804.801,759.167 807.868,766.571 813.327,772.03C818.787,777.489 826.191,780.556 833.911,780.556L837.391,780.556C839.972,789.575 839.962,798.593 837.391,807.611L833.911,807.611C826.191,807.611 818.787,810.678 813.327,816.137C807.868,821.596 804.801,829 804.801,836.721L804.801,840.2C795.783,843.111 786.765,843.122 777.747,840.2L777.747,836.721C777.747,829 774.68,821.596 769.221,816.137C763.762,810.678 756.357,807.611 748.637,807.611L745.158,807.611C742.326,798.593 742.356,789.575 745.158,780.556L748.637,780.556Z" style="fill:rgb(236,102,12);stroke:black;stroke-width:1.87px;"/>
                    </g>
                    <g>
                        <g transform="matrix(1.84549,0,0,3.1891,-418.924,-81.7302)">
                            <path d="M991.417,859.339L1084.95,952.875L1236.1,952.875" style="fill:none;stroke:black;stroke-width:0.63px;"/>
                        </g>
                        <g transform="matrix(1.84549,0,0,3.1891,-418.924,-81.7302)">
                            <path d="M1043.45,659.453L1119.82,583.083L1236.1,583.083" style="fill:none;stroke:black;stroke-width:0.63px;"/>
                        </g>
                        <g transform="matrix(-1.84549,0,0,3.1891,2808.66,332.424)">
                            <path d="M963.207,636.765L1016.89,583.083L1236.1,583.083" style="fill:none;stroke:black;stroke-width:0.63px;"/>
                        </g>
                        <g transform="matrix(1.84549,0,0,3.1891,-418.924,170.607)">
                            <path d="M1082.77,620.134L1119.82,583.083L1236.1,583.083" style="fill:none;stroke:black;stroke-width:0.63px;"/>
                        </g>
                        <g transform="matrix(-1.84549,0,0,3.1891,2808.66,584.761)">
                            <path d="M1009.69,614.311L1038.55,585.451L1236.1,583.083" style="fill:none;stroke:black;stroke-width:0.63px;"/>
                        </g>
                        <g transform="matrix(1.84549,0,0,-3.1891,-418.924,4491.01)">
                            <path d="M1004.49,698.413L1119.82,583.083L1236.1,583.083" style="fill:none;stroke:black;stroke-width:0.63px;"/>
                        </g>
                        <g transform="matrix(-1.84549,0,0,-3.1891,2808.66,4905.16)">
                            <path d="M904.094,740.429L1061.44,583.083L1236.1,583.083" style="fill:none;stroke:black;stroke-width:0.63px;"/>
                        </g>
                        <g transform="matrix(1.84549,0,0,3.1891,-475.268,-232.075)">
                            <path d="M966.273,736.631L1119.82,583.083L1266.63,583.083" style="fill:none;stroke:black;stroke-width:0.63px;"/>
                        </g>
                        <g transform="matrix(2.65154,0,0,-3.1891,-1496.23,4189.15)">
                            <path d="M1137.81,583.083L1266.63,583.083" style="fill:none;stroke:black;stroke-width:0.5px;"/>
                        </g>
                        <g transform="matrix(-2.65154,0,0,-3.1891,3885.97,4603.31)">
                            <path d="M1076.69,600.213L1088.62,583.083L1266.63,583.083" style="fill:none;stroke:black;stroke-width:0.5px;"/>
                        </g>
                        <g transform="matrix(-1.84549,0,0,3.1891,2863.48,-232.075)">
                            <path d="M966.273,736.631L1119.82,583.083L1266.63,583.083" style="fill:none;stroke:black;stroke-width:0.63px;"/>
                        </g>
                        <g transform="matrix(-1.84549,0,0,3.1891,2861.4,32.6729)">
                            <path d="M1072.72,630.182L1119.82,583.083L1266.63,583.083" style="fill:none;stroke:black;stroke-width:0.63px;"/>
                        </g>
                        <g transform="matrix(1.84549,0,0,3.1891,-2163.51,743.374)">
                            <g>
                                <g transform="matrix(1,0,0,1,1276.42,287.522)">
                                    <text x="0px" y="0px" style="font-family:'Roboto-Light', 'Roboto';font-weight:300;font-size:37.5px;">t</text>
                                </g>
                                <g transform="matrix(1,0,0,1,1288.1,287.522)">
                                    <text x="0px" y="0px" style="font-family:'Roboto-Light', 'Roboto';font-weight:300;font-size:37.5px;">oggle r</text>
                                </g>
                                <g transform="matrix(1,0,0,1,1399.87,287.522)">
                                    <text x="0px" y="0px" style="font-family:'Roboto-Light', 'Roboto';font-weight:300;font-size:37.5px;">ec.</text>
                                </g>
                            </g>
                        </g>
                        <g transform="matrix(1.84549,0,0,3.1891,-2163.51,1009.97)">
                            <g>
                                <g transform="matrix(1,0,0,1,1248.66,287.522)">
                                    <text x="0px" y="0px" style="font-family:'Roboto-Light', 'Roboto';font-weight:300;font-size:37.5px;">actuat</text>
                                </g>
                                <g transform="matrix(1,0,0,1,1352.48,287.522)">
                                    <text x="0px" y="0px" style="font-family:'Roboto-Light', 'Roboto';font-weight:300;font-size:37.5px;">or 1-5</text>
                                </g>
                            </g>
                        </g>
                        <g transform="matrix(1.84549,0,0,3.1891,-440.343,742.761)">
                            <g>
                                <g transform="matrix(1,0,0,1,1257.28,287.522)">
                                    <text x="0px" y="0px" style="font-family:'Roboto-Light', 'Roboto';font-weight:300;font-size:37.5px;">t</text>
                                </g>
                                <g transform="matrix(1,0,0,1,1268.97,287.522)">
                                    <text x="0px" y="0px" style="font-family:'Roboto-Light', 'Roboto';font-weight:300;font-size:37.5px;">oggle pla</text>
                                </g>
                                <g transform="matrix(1,0,0,1,1417.46,287.522)">
                                    <text x="0px" y="0px" style="font-family:'Roboto-Light', 'Roboto';font-weight:300;font-size:37.5px;">yback</text>
                                </g>
                            </g>
                        </g>
                        <g transform="matrix(1.84549,0,0,3.1891,-440.343,893.719)">
                            <g>
                                <g transform="matrix(1,0,0,1,1257.28,287.522)">
                                    <text x="0px" y="0px" style="font-family:'Roboto-Light', 'Roboto';font-weight:300;font-size:37.5px;">actuat</text>
                                </g>
                                <g transform="matrix(1,0,0,1,1361.1,287.522)">
                                    <text x="0px" y="0px" style="font-family:'Roboto-Light', 'Roboto';font-weight:300;font-size:37.5px;">or 1+2</text>
                                </g>
                            </g>
                        </g>
                        <g transform="matrix(1.84549,0,0,3.1891,-2198.94,1307.87)">
                            <g>
                                <g transform="matrix(1,0,0,1,1257.28,287.522)">
                                    <text x="0px" y="0px" style="font-family:'Roboto-Light', 'Roboto';font-weight:300;font-size:37.5px;">actuat</text>
                                </g>
                                <g transform="matrix(1,0,0,1,1361.1,287.522)">
                                    <text x="0px" y="0px" style="font-family:'Roboto-Light', 'Roboto';font-weight:300;font-size:37.5px;">or 1+2</text>
                                </g>
                            </g>
                        </g>
                        <g transform="matrix(1.84549,0,0,3.1891,-440.343,1159.45)">
                            <g>
                                <g transform="matrix(1,0,0,1,1257.28,287.522)">
                                    <text x="0px" y="0px" style="font-family:'Roboto-Light', 'Roboto';font-weight:300;font-size:37.5px;">actuat</text>
                                </g>
                                <g transform="matrix(1,0,0,1,1361.1,287.522)">
                                    <text x="0px" y="0px" style="font-family:'Roboto-Light', 'Roboto';font-weight:300;font-size:37.5px;">or 2+3</text>
                                </g>
                            </g>
                        </g>
                        <g transform="matrix(1.84549,0,0,3.1891,-2198.94,1573.61)">
                            <g>
                                <g transform="matrix(1,0,0,1,1257.28,287.522)">
                                    <text x="0px" y="0px" style="font-family:'Roboto-Light', 'Roboto';font-weight:300;font-size:37.5px;">actuat</text>
                                </g>
                                <g transform="matrix(1,0,0,1,1361.1,287.522)">
                                    <text x="0px" y="0px" style="font-family:'Roboto-Light', 'Roboto';font-weight:300;font-size:37.5px;">or 2+3</text>
                                </g>
                            </g>
                        </g>
                        <g transform="matrix(1.84549,0,0,3.1891,-440.343,1458.1)">
                            <g>
                                <g transform="matrix(1,0,0,1,1257.28,287.522)">
                                    <text x="0px" y="0px" style="font-family:'Roboto-Light', 'Roboto';font-weight:300;font-size:37.5px;">actuat</text>
                                </g>
                                <g transform="matrix(1,0,0,1,1361.1,287.522)">
                                    <text x="0px" y="0px" style="font-family:'Roboto-Light', 'Roboto';font-weight:300;font-size:37.5px;">or 3+4</text>
                                </g>
                            </g>
                        </g>
                        <g transform="matrix(1.84549,0,0,3.1891,-2198.94,1872.26)">
                            <g>
                                <g transform="matrix(1,0,0,1,1257.28,287.522)">
                                    <text x="0px" y="0px" style="font-family:'Roboto-Light', 'Roboto';font-weight:300;font-size:37.5px;">actuat</text>
                                </g>
                                <g transform="matrix(1,0,0,1,1361.1,287.522)">
                                    <text x="0px" y="0px" style="font-family:'Roboto-Light', 'Roboto';font-weight:300;font-size:37.5px;">or 3+4</text>
                                </g>
                            </g>
                        </g>
                        <g transform="matrix(1.84549,0,0,3.1891,-440.343,1757.93)">
                            <g>
                                <g transform="matrix(1,0,0,1,1257.28,287.522)">
                                    <text x="0px" y="0px" style="font-family:'Roboto-Light', 'Roboto';font-weight:300;font-size:37.5px;">actuat</text>
                                </g>
                                <g transform="matrix(1,0,0,1,1361.1,287.522)">
                                    <text x="0px" y="0px" style="font-family:'Roboto-Light', 'Roboto';font-weight:300;font-size:37.5px;">or 4+5</text>
                                </g>
                            </g>
                        </g>
                        <g transform="matrix(1.84549,0,0,3.1891,-2198.94,2172.08)">
                            <g>
                                <g transform="matrix(1,0,0,1,1257.28,287.522)">
                                    <text x="0px" y="0px" style="font-family:'Roboto-Light', 'Roboto';font-weight:300;font-size:37.5px;">actuat</text>
                                </g>
                                <g transform="matrix(1,0,0,1,1361.1,287.522)">
                                    <text x="0px" y="0px" style="font-family:'Roboto-Light', 'Roboto';font-weight:300;font-size:37.5px;">or 4+5</text>
                                </g>
                            </g>
                        </g>
                        <g transform="matrix(1.84549,0,0,3.1891,-440.343,2072.41)">
                            <g>
                                <g transform="matrix(1,0,0,1,1257.28,287.522)">
                                    <text x="0px" y="0px" style="font-family:'Roboto-Light', 'Roboto';font-weight:300;font-size:37.5px;">actuat</text>
                                </g>
                                <g transform="matrix(1,0,0,1,1361.1,287.522)">
                                    <text x="0px" y="0px" style="font-family:'Roboto-Light', 'Roboto';font-weight:300;font-size:37.5px;">or 1-5</text>
                                </g>
                            </g>
                        </g>
                    </g>
                </g>
            </g>
        </g>
    </g>
</svg>
